<svg xmlns="http://www.w3.org/2000/svg" width="461" height="461" fill="none"><path fill="#FFD043" d="M370.812 192.083c-1.631-4.696-2.074-9.918-4.093-14.313-1.819-3.961-4.75-7.231-6.576-11.199-2.332-5.068-6.251-8.833-8.886-13.727-4.643-8.624-13.383-13.151-19.551-20.517-5.719-6.828-12.712-13.225-20.116-17.963-3.094-1.98-6.337-2.916-9.561-4.379-3.921-1.778-7.933-3.295-11.959-4.858-3.282-1.275-6.145-2.633-9.508-3.573-1.365-.382-3.005-.877-4.294-1.6-3.134-1.758-3.97-2.524-7.652-2.848-6.854-.602-14.247-1.875-21.041-3.61-7.516-1.92-15.31-2.346-22.877-4.064-6.699-1.522-16.475-1.155-23.296-.44-9.293.972-19.311 5.167-27.962 8.554-3.675 1.44-7.997 1.532-11.532 3.039-2.129.908-4.161 2.965-6.157 4.19-1.887 1.159-3.492 2.102-5.272 3.525-3.857 3.084-8.004 5.729-11.859 8.778-4.467 3.533-7.182 7.823-10.721 12.173-3.228 3.968-7.765 6.966-10.781 11.102-2.657 3.644-5.017 7.879-7.608 11.682-2.546 3.738-3.78 7.34-6.563 10.886-3.276 4.175-5.219 9.129-7.832 13.698-3.233 5.655-3.882 10.963-3.985 16.757-1.318 2.892-2.476 5.875-2.938 8.88-.606 3.939-.58 7.707-1.308 11.664-1.327 7.206-.341 15.559-.341 22.913 0 3.146.026 6.293-.03 9.439-.102 5.671 2.292 9.402 3.175 14.645 1.372 8.143 4.63 16.265 7.107 24.275 3.705 11.973 9.848 21.182 18.529 29.94 3.052 3.079 6.49 5.557 9.855 8.268 1.625 1.311 2.94 2.022 4.299 3.599a31.464 31.464 0 0 0 2.892 4.631 9.656 9.656 0 0 0 4.341 1.79c3.464 2.021 6.024 5.294 9.602 7.355 3.003 1.73 5.894 2.517 9.141 3.53 7.612 2.375 14.953 3.596 22.498 5.975 8.859 2.794 17.82 4.49 26.881 6.467 3.414.745 6.408 1.931 9.887 2.042 1.269.041 2.543-.114 3.812-.074 2.923.092 4.5 1.17 7.192 1.725 6.078 1.254 14.202.294 19.901-1.331 3.458-.986 7.25-.75 10.786-1.605 2.122-.513 4.117.117 6.171-.268 1.982-.373 3.622-1.496 5.658-1.783 2.267-.319 4.348.532 6.615-.231 1.343-.452 2.416-1.669 3.749-2.151 2.945-1.064 5.475-1.427 8.425-2.791 7.417-3.428 15.013-5.796 21.761-10.748 3.321-2.436 7.263-3.896 10.413-6.38 2.979-2.35 6.404-5.518 9.221-8.11 6.317-5.812 14.663-12.809 18.365-20.83 2.241-4.857 3.471-8.062 6.807-12.229 2.485-3.103 4.864-6.572 6.503-10.244 3.447-7.725 6.861-16.134 8.417-24.473 3.152-16.887 7.135-33.476 4.545-50.659"/><path fill="#FFD043" d="M378.237 190.036c-1.018-3.012-1.582-6.138-2.372-9.211-.903-3.515-2.272-6.916-4.165-10.017-1.654-2.709-3.518-5.259-4.909-8.123-1.307-2.689-2.989-5.102-4.753-7.507-1.801-2.455-3.323-4.995-4.918-7.578-1.674-2.712-3.742-5.239-5.977-7.51-3.884-3.95-8.398-7.224-12.224-11.235-2.134-2.237-4.049-4.67-6.194-6.901a94.543 94.543 0 0 0-6.941-6.531c-2.76-2.343-5.643-4.573-8.639-6.607-3.185-2.162-6.603-3.607-10.168-5.039-.403-.162-.805-.328-1.208-.489-1.062-.425 1.757.795.146.049-.651-.301-1.31-.585-1.968-.869a236.003 236.003 0 0 0-6.311-2.616c-3.17-1.258-6.35-2.486-9.511-3.767-1.472-.596-2.953-1.172-4.47-1.646-.701-.219-1.411-.406-2.113-.62-.372-.114-.737-.25-1.109-.362-1.385-.417 1.433.832.118.059-2.368-1.392-4.886-2.884-7.583-3.5-1.848-.42-3.761-.544-5.644-.73-.784-.078-1.568-.164-2.35-.256-.352-.042-.702-.088-1.054-.13-1.717-.205 1.513.23-.072-.011-3.382-.515-6.746-1.097-10.088-1.834-3.322-.733-6.598-1.621-9.953-2.21-3.372-.593-6.769-1.03-10.151-1.556-3.133-.489-6.213-1.262-9.344-1.736-3.331-.504-6.658-.816-10.025-.869-6.281-.099-12.708.299-18.883 1.472-6.49 1.232-12.729 3.551-18.865 5.943-2.964 1.156-5.864 2.439-8.984 3.115-3.498.759-6.907 1.334-10.13 3.01-.618.32-1.196.709-1.761 1.114-.516.37-3.732 2.736-2.314 1.765 1.081-.741-.209.152-.359.26-.247.18-.497.356-.752.525-.67.442-1.369.843-2.05 1.268-1.658 1.033-3.207 2.177-4.748 3.38-.108.084-1.428 1.186-.46.371.971-.817-.373.28-.48.36-.703.527-1.413 1.045-2.126 1.559-3.095 2.234-6.215 4.424-9.2 6.807-2.447 1.954-4.526 4.275-6.465 6.723-.709.895-1.403 1.801-2.1 2.705l-.746.967-.149.194c-.499.648-.399.52.3-.386-.144.529-.892 1.142-1.242 1.575a33.621 33.621 0 0 1-1.706 1.97c-2.051 2.175-4.367 4.076-6.479 6.189-4.809 4.812-7.983 10.966-11.728 16.58-1.781 2.67-3.104 5.594-4.787 8.321-1.677 2.717-3.7 5.144-5.242 7.96-1.462 2.671-2.755 5.43-4.243 8.088-1.813 3.238-3.297 6.738-4.063 10.38-.723 3.438-1.023 6.97-1.095 10.477l1.051-3.886c-1.066 2.36-2.125 4.75-2.891 7.228-.823 2.661-1.15 5.438-1.43 8.202-.214 2.108-.361 4.221-.58 6.328-.187 1.789.248-1.336.016-.181-.086.426-.152.859-.223 1.288-.274 1.658-.5 3.33-.654 5.003-.394 4.289-.206 8.608-.044 12.904.16 4.226.187 8.45.171 12.68-.017 4.476.207 8.755 1.523 13.069.519 1.699 1.097 3.379 1.513 5.107.528 2.193.842 4.43 1.382 6.623 1.06 4.295 2.473 8.492 3.878 12.683 1.359 4.051 2.528 8.183 4.111 12.154 3.09 7.75 7.206 14.647 12.447 21.134 5.404 6.689 11.889 12.109 18.758 17.231l.369.272c.649.484.484.352-.496-.397.196.298.749.669 1.025.904 1.179 1.004-.703-1.396-.059.047.198.444.495.876.749 1.289a33.68 33.68 0 0 0 1.675 2.459c1.317 1.772 2.852 3.022 4.83 3.928-.283-.129 3.353 1.59 3.641 1.32l-.972-.456c.261.162.518.331.77.507l.376.267c.649.484.495.364-.461-.361.361.643 1.552 1.312 2.119 1.806.823.717 1.65 1.425 2.506 2.102 3.916 3.1 8.213 5.03 12.968 6.511 4.355 1.357 8.749 2.505 13.183 3.576 8.699 2.1 17.195 4.88 25.933 6.832 4.387.98 8.817 1.797 13.184 2.859 1.953.475 3.873 1.086 5.85 1.458 2.649.498 5.124.616 7.795.555.133-.003 1.556.081 1.591.021l-1.114-.169c.288.045.574.101.857.167.802.183 1.578.453 2.358.709 2.345.77 4.721 1.13 7.178 1.386 4.296.447 8.609-.001 12.862-.631a53.066 53.066 0 0 0 5.299-1.046c.9-.229 1.786-.499 2.699-.677.587-.115 2.092-.059 0-.035.503-.006 1.053-.114 1.556-.163 1.041-.101 2.082-.195 3.121-.321-.375.045 4.626-.69 4.608-.732l-.996.104c.345-.03.69-.044 1.035-.041.512-.002 1.023.036 1.535.053 1.692.055 3.397-.086 5.048-.483.886-.213 1.722-.581 2.568-.908.425-.164.848-.331 1.284-.463l.441-.127c.802-.172.598-.16-.613.035.677.205 1.825.039 2.536.086 1.683.113 3.451.058 5.086-.389a13.586 13.586 0 0 0 3.875-1.739c.359-.236.756-.476 1.09-.746 1.189-.958-1.86.522-.209.014 2.003-.616 4.052-1.132 6.025-1.84 2.232-.801 4.366-1.858 6.54-2.799.423-.183.946-.509 1.397-.597l-.909.383.93-.391c1.542-.648 3.085-1.293 4.623-1.951 3.714-1.587 7.395-3.289 10.798-5.482 1.696-1.093 3.288-2.317 5.039-3.328 1.837-1.059 3.743-2 5.535-3.136 3.716-2.354 7.025-5.458 10.267-8.415 5.578-5.087 11.485-10.025 16.242-15.92 2.682-3.325 4.872-6.674 6.636-10.554.727-1.599 1.448-3.203 2.267-4.757.245-.463 2.824-5.023 3.097-4.874l-.584.763a148.844 148.844 0 0 0 2.435-3.139 63.388 63.388 0 0 0 1.486-2.055c1.254-1.814 2.402-3.707 3.361-5.694 2.151-4.455 4.028-9.095 5.744-13.733 3.054-8.252 4.546-16.819 6.153-25.439 1.725-9.263 3.253-18.665 3.369-28.107.06-4.941-.386-9.814-1.102-14.7-.261-1.774-2.067-3.74-3.539-4.602-1.651-.966-4.083-1.375-5.934-.776-1.863.603-3.66 1.758-4.601 3.539-1.033 1.954-1.095 3.765-.777 5.933.208 1.419-.052-.185-.044-.386-.013.338.093.76.131 1.106.082.734.152 1.47.212 2.206.126 1.554.204 3.112.239 4.67a95.326 95.326 0 0 1-.246 9.008c-.099 1.361-.224 2.72-.369 4.077-.078.724-.161 1.447-.25 2.17-.045.362-.092.723-.138 1.085-.124.994.234-1.626.017-.15-.439 2.988-.93 5.966-1.47 8.937-1.058 5.826-2 11.743-3.421 17.492-.715 2.898-1.61 5.749-2.614 8.559-.459 1.286-.94 2.562-1.44 3.832-.266.675-.537 1.348-.812 2.02-.132.321-.254.689-.415 1.002.94-1.826.094-.222-.066.149-1.093 2.546-2.192 5.079-3.623 7.458a50.889 50.889 0 0 1-2.248 3.403c-.197.275-.4.545-.598.819-.412.567-.177.796.289-.356-.372.92-1.565 1.993-2.139 2.742-3.079 4.016-4.754 8.565-7.07 13.004a32.068 32.068 0 0 1-1.838 3.063c-.34.505-.699.997-1.057 1.49-.137.189-.644.854.041-.045.773-1.014-.089.095-.267.312-1.651 2.007-3.446 3.891-5.3 5.71-3.568 3.5-7.32 6.824-11.018 10.186-.999.909-2.004 1.812-3.022 2.699a115.658 115.658 0 0 1-2.252 1.912c-.215.177-1.343 1.021-.321.281 1.064-.773-.763.506-.981.647-.544.35-1.1.681-1.662 1.004-1.205.691-2.438 1.335-3.648 2.019-2.348 1.327-4.459 2.998-6.772 4.382-2.383 1.426-4.883 2.642-7.42 3.77-.612.272-1.227.539-1.842.803-1.774.76 1.304-.544-.478.204-1.777.747-3.557 1.489-5.328 2.25-.622.267-1.243.537-1.861.812-.31.138-.621.275-.928.419-.198.092-1.013.402-.029.034 1.046-.391-.011-.002-.275.095-.308.114-.619.222-.931.325-.682.224-1.371.424-2.061.62-2.94.839-5.925 1.714-8.379 3.618-.753.584 1.667-.489.616-.24-1.044.247 1.544.027.509-.034-.584-.034-1.174-.012-1.761-.052-2.037-.141-4.011-.082-6.017.429-1.104.281-2.134.784-3.204 1.162-.287.101-.575.196-.868.276l-.221.06c-.622.126-.602.132.06.02l.513-.079a9.736 9.736 0 0 1-.764.012c-.425-.003-.849-.028-1.273-.043-1.925-.07-3.773.185-5.665.572-.34.069-.681.128-1.022.191-1.204.223.481-.018.496-.062-.056.156-2.112.212-2.342.234-3.235.308-6.295.914-9.441 1.653a51.995 51.995 0 0 1-3.312.662c-.308.051-.616.095-.923.146-1.012.169 1.669-.195.642-.084-.713.078-1.424.162-2.139.22-2.591.21-5.137.148-7.725-.045-.87-.065 1.054.106.95.132-.165.041-.651-.106-.852-.144a19.156 19.156 0 0 1-1.753-.416c-1.127-.327-2.221-.762-3.361-1.042a21.325 21.325 0 0 0-5.359-.625c-.727.011-1.453.066-2.18.077-.249.003-2.25-.241-2.352-.12.088-.105 1.946.373.558.044-.322-.077-.652-.131-.975-.203a51.033 51.033 0 0 1-1.934-.482c-1.316-.346-2.625-.711-3.953-1.008-5.934-1.329-11.905-2.484-17.81-3.944-5.835-1.442-11.53-3.36-17.365-4.8-5.72-1.412-11.428-2.78-17.043-4.58a54.934 54.934 0 0 1-1.823-.614c-.301-.109-.599-.227-.9-.336-1.228-.446.369.124.499.217-1.107-.789-2.497-1.237-3.633-2.032-1.533-1.074 1.139.963-.297-.227a81.87 81.87 0 0 1-1.419-1.215 81.078 81.078 0 0 0-4.214-3.451c-1.34-1.017-2.697-1.953-4.353-2.386-.305-.079-.62-.122-.926-.206-.366-.101-1.152-.562-.188 0 1.03.599.122.03-.143-.119-.35-.198-.679-.419-1.008-.649l2.762 2.763c-1.569-2.117-2.633-4.644-4.435-6.566-.97-1.034-2.146-1.874-3.269-2.726a68.99 68.99 0 0 0-1.083-.806c-.175-.128-.845-.637.007.014 1.018.779-.33-.276-.424-.35-3.405-2.707-6.838-5.335-9.873-8.466a92.107 92.107 0 0 1-4.048-4.449 82.652 82.652 0 0 1-1.727-2.101c-.14-.176-.274-.358-.418-.531-.044-.053 1.011 1.342.52.668-.307-.422-.626-.836-.932-1.259a67.684 67.684 0 0 1-5.977-9.936 83.69 83.69 0 0 1-1.145-2.471c-.551-1.227.679 1.681-.025-.067a70.902 70.902 0 0 1-.59-1.515c-.726-1.932-1.326-3.903-1.958-5.867-1.469-4.57-3.096-9.088-4.447-13.695-1.236-4.213-1.801-8.578-3.06-12.773-.547-1.821-1.182-3.617-1.615-5.47-.103-.438-.184-.88-.273-1.32-.05-.248-.169-1.086.001.11.179 1.254.037.167.014-.153-.082-1.135-.037-2.271-.026-3.407.044-4.525.037-9.051-.13-13.572-.167-4.47-.392-8.961-.007-13.426.042-.5.103-.997.154-1.495.088-.874-.12.856-.108.82.071-.222.082-.496.121-.726.297-1.735.546-3.477.744-5.226.248-2.193.367-4.398.606-6.592.038-.352.104-.712.126-1.064 0 .002-.273 1.549-.083.726.114-.496.186-1.002.304-1.499a29.73 29.73 0 0 1 .977-3.226c.161-.447.512-1.008.566-1.475-.001.008-.617 1.408-.265.62.109-.241.214-.485.32-.727.684-1.558 1.179-2.897 1.275-4.617.032-.572.029-1.148.054-1.721.044-.969.127-1.932.21-2.898.125-1.445-.282 1.568-.028.141.112-.633.216-1.266.353-1.894.21-.957.465-1.904.77-2.835.157-.478.334-.949.51-1.421.073-.198.395-1.041.008-.032-.406 1.059.055-.064.159-.275 1.889-3.862 3.93-7.784 6.107-11.491 1.112-1.894 2.476-3.574 3.701-5.388 1.166-1.725 2.116-3.577 3.106-5.405 2.13-3.934 4.72-7.656 7.124-11.429.554-.869 1.114-1.733 1.694-2.585.285-.419.582-.83.869-1.248.134-.196.688-.884-.026.002-.798.991.093-.097.275-.308 1.277-1.488 2.712-2.83 4.152-4.157 1.501-1.383 3.021-2.75 4.401-4.256 1.763-1.923 3.3-4.064 4.888-6.128l.447-.581c.02-.026-.986 1.258-.459.598.302-.378.598-.761.902-1.138a53.325 53.325 0 0 1 2.198-2.576 35.706 35.706 0 0 1 2.079-2.094c.371-.342.75-.676 1.138-.999.197-.165.398-.325.597-.487.768-.626.077.027-.31.237.971-.526 1.855-1.382 2.753-2.03.926-.667 1.857-1.327 2.784-1.991 2.216-1.587 4.639-3.14 6.632-4.994.001-.001-1.233.891-.548.433.202-.135.396-.287.596-.426.391-.272.788-.535 1.188-.792.941-.606 1.92-1.157 2.853-1.775 1.198-.793 2.247-1.809 3.447-2.59.033-.021-1.289.963-.601.47.195-.14.383-.289.578-.429.443-.318.894-.625 1.367-.897.157-.091.471-.192.593-.322-.011.012-1.556.561-.769.328.546-.161 1.076-.366 1.626-.517 1.044-.287 2.106-.502 3.168-.713 2.134-.426 4.257-.846 6.294-1.633 8.285-3.201 16.481-6.589 25.272-8.138 1.455-.256-1.532.158-.076.002.43-.046.86-.093 1.29-.135a116.245 116.245 0 0 1 8.75-.518 85.169 85.169 0 0 1 6.167.086c.917.048 1.834.115 2.748.204.595.059 2.363.37-.074-.042.488.083.978.147 1.465.234 4.375.788 8.715 1.63 13.119 2.278 4.641.682 9.159 1.631 13.725 2.697 4.962 1.158 9.976 1.981 15.026 2.647a130.454 130.454 0 0 0 4.973.563c.251.024.506.059.758.07 1.04.048-1.619-.298-.731-.107.688.147 1.352.36 2.032.521.58.137-1.104-.438-1.111-.475.008.042.387.185.433.21.408.222.819.437 1.223.666 2.091 1.188 4.22 2.231 6.525 2.957 2.13.67 4.238 1.304 6.314 2.136 2.163.867 4.318 1.751 6.491 2.593 2.141.83 4.3 1.927 6.495 2.583-.01-.003-1.396-.601-.602-.254l.74.319c.493.215.983.437 1.475.655 1.487.662 2.99 1.289 4.5 1.896.562.226 1.125.453 1.688.678 1.351.541-1.243-.586.077.042 1.046.498 2.076 1.008 3.063 1.618 1.865 1.153 3.634 2.451 5.392 3.758.681.507-.554-.428-.549-.423.177.175.406.321.601.477a88.473 88.473 0 0 1 3.92 3.327 96.753 96.753 0 0 1 9.101 9.379c2.492 2.935 5.301 5.501 8.205 8.02 2.791 2.421 5.612 4.837 8.027 7.646.283.33.553.672.832 1.006.527.631-.574-.756-.538-.693.106.185.262.359.386.533.6.848 1.147 1.727 1.652 2.634 1.021 1.831 2.162 3.562 3.393 5.259 1.171 1.613 2.38 3.2 3.469 4.871 1.169 1.792 2.008 3.721 3.045 5.582 1.055 1.893 2.306 3.664 3.467 5.49a39.91 39.91 0 0 1 1.526 2.577c.213.398.379 1.009.671 1.346.006.007-.579-1.51-.304-.724.134.383.288.76.418 1.144 1.338 3.944 1.869 8.107 3.202 12.053 1.286 3.809 5.358 6.71 9.472 5.378 3.785-1.225 6.758-5.386 5.378-9.473Z"/><path fill="#000" d="M80.652 256.495c-1.671 5.319-1.544 10.829-.763 16.286.362 2.526.869 5.025 1.448 7.509.579 2.478.828 5.017 1.412 7.492.55 2.336 1.585 4.527 1.969 6.907.348 2.159.552 4.312 1.373 6.358 1.077 2.684 2.478 4.897 4.206 7.188 1.537 2.039 2.878 4.06 3.884 6.416l-.903-2.14c.972 2.324 1.8 4.753 3.226 6.847 1.277 1.876 2.727 3.627 4.396 5.163 3.028 2.788 5.91 5.638 9.186 8.142l-1.991-1.538c3.06 2.387 6.449 4.241 9.529 6.59l-2.022-1.562c3.793 2.963 7.144 6.455 10.597 9.797 2.117 2.049 4.329 4.02 6.8 5.642 1.797 1.18 3.765 2.029 5.495 3.325l-2.105-1.627c1.614 1.275 2.995 2.717 4.726 3.874 1.448.968 3.163 1.507 4.756 2.17l-2.507-1.058c4.925 2.092 10.031 3.652 14.96 5.714l-2.556-1.078c3.486 1.502 6.859 3.231 10.463 4.458 2.92.995 5.912 1.705 8.928 2.337 2.984.625 5.783 1.339 8.655 2.371 3.703 1.33 7.588 1.476 11.455 1.985l-2.899-.39c3.124.476 6.106 1.235 9.283 1.545 2.275.222 4.561.141 6.83.431l-2.901-.39c3.408.473 6.793 1.127 10.243 1.113 2.966-.013 5.933-.007 8.899.002 2.854.008 5.711.06 8.564-.002 2.829-.061 5.654-.23 8.471.127l-2.908-.391c2.36.337 4.69.77 7.06 1.06 2.541.311 4.845.07 7.398-.372 3.197-.554 6.411-1.147 9.578-1.855 7.008-1.568 14.133-3.942 20.381-7.487 2.927-1.661 5.618-3.663 8.469-5.44 1.318-.821 2.729-1.477 4.008-2.363a31.489 31.489 0 0 0 4.561-3.861c1.011-1.035 1.947-2.139 2.941-3.189a21.52 21.52 0 0 1 1.567-1.482c.215-.187.435-.368.653-.553 1.109-.937-1.24.815-.1.092.619-.392 1.221-.78 1.866-1.129 1.381-.745-1.13.392-.17.075.371-.122.739-.27 1.103-.413 2.067-.81 3.643-1.602 5.31-3.103 1.2-1.079 2.31-2.26 3.511-3.343 1.255-1.132 2.484-2.29 3.559-3.598.449-.546.872-1.115 1.303-1.676.42-.556.38-.505-.12.155.149-.181.304-.358.463-.53a24.163 24.163 0 0 1 1.78-1.741 15.716 15.716 0 0 0 4.164-5.983l-1.315 2.257c3.12-2.948 5.741-6.325 9.01-9.134.29-.248.582-.544.903-.753-.773.502.642-.292.777-.373a49.395 49.395 0 0 0 2.338-1.477c1.697-1.157 3.371-2.447 4.699-4.027.48-.572.918-1.179 1.376-1.769-.513.661.243-.294.352-.422.635-.742 1.313-1.445 1.985-2.153 1.523-1.606 3.031-3.283 4.176-5.187 2.323-3.863 4.461-8.206 4.587-12.781.064-2.336-1.835-4.309-4.069-4.609-2.102-.282-4.769 1.055-5.148 3.361a13.907 13.907 0 0 1-.78 2.766c-.16.415-.317.825-.471 1.242-.06.164-.597 1.506-.418 1.088.181-.421-.408.897-.48 1.052-.18.391-.365.779-.549 1.169-.423.895-.834 1.794-1.359 2.637-.224.359-.478.697-.712 1.049.532-.801-.216.264-.292.356-.62.747-1.273 1.465-1.905 2.2a51.652 51.652 0 0 0-2.058 2.565c-.348.46-.663.942-1.001 1.409.444-.614-.217.249-.345.39-.591.653-1.259 1.207-1.905 1.802-.245.199-.203.17.127-.087-.211.159-.424.315-.64.468-.322.23-.649.453-.977.674-1.451.974-2.932 1.768-4.467 2.594-3.873 2.084-6.752 5.811-9.986 8.718l2.257-1.315c-.747.199-1.418.575-2.135.847 1.242-.471-.129.04-.302.11-1.28.518-2.231 1.024-3.32 1.83-1.797 1.33-3.275 2.747-4.859 4.294a26.714 26.714 0 0 1-2.099 1.819c-.702.555-.493.411.081-.061-.678.557-1.393 1.073-2.086 1.611a54.697 54.697 0 0 0-2.146 1.726c-.266.228-.542.457-.798.697-.843.79 1.444-.863.482-.369l-.244.15c-.602.313-.34.216.787-.29-.388.046-.837.278-1.21.389-1.055.315-2.065.646-3.083 1.076-1.776.75-3.368 1.632-4.92 2.778-.731.541-1.435 1.117-2.161 1.665-1.26.952 1.39-1.007.106-.117-.704.487-1.388 1.003-2.088 1.495-1.417.995-2.872 1.925-4.449 2.646l1.974-.833c-1.642.674-3.38 1.062-5.032 1.711-1.749.687-3.479 1.42-5.236 2.088-3.374 1.284-6.892 2.113-10.373 3.043-3.447.922-6.95 1.623-10.465 2.226-3.688.633-7.336 1.501-11.027 2.122l2.909-.39c-1.424.178-2.82.125-4.241-.055l2.908.391c-3.491-.5-6.953-1.242-10.494-1.278-2.962-.03-5.926.131-8.889.129-2.967-.003-5.933-.011-8.9-.01-2.943.002-5.904.149-8.83-.228l2.902.39c-2.736-.382-5.469-.922-8.23-1.064-1.963-.101-3.911-.103-5.866-.349l2.899.39c-1.687-.239-3.318-.714-4.998-.98-2.501-.397-5.015-.574-7.521-.904l2.898.389c-2.266-.347-4.332-1.198-6.483-1.945-2.147-.744-4.375-1.105-6.593-1.57-4.441-.93-8.881-1.995-13.083-3.732l2.57 1.084c-3.747-1.601-7.435-3.178-11.324-4.397-2.91-.912-5.809-1.834-8.635-2.984l2.502 1.056a7.416 7.416 0 0 1-1.453-.848l2.115 1.634c-2.116-1.683-4.116-3.508-6.497-4.822-1.851-1.02-3.697-1.872-5.383-3.171l2.079 1.607c-4.021-3.21-7.554-6.995-11.537-10.253-2.501-2.045-5.061-3.969-7.839-5.615-2.05-1.216-4.144-2.379-6.055-3.81l1.972 1.524c-2.565-2.01-5.055-4.113-7.649-6.098l1.912 1.477c-1.344-1.048-2.586-2.164-3.639-3.51l1.444 1.87c-1.516-2.075-2.651-4.397-4.192-6.458-1.867-2.497-4.034-4.544-6.187-6.774-.423-.438-.819-.898-1.23-1.346-.534-.65-.39-.457.433.58a12.762 12.762 0 0 1-.477-.718 36.305 36.305 0 0 1-1.673-3.047c-1.069-2.163-2.035-4.213-3.415-6.206a23.04 23.04 0 0 1-1.905-3.248c-.103-.216-.922-2.096-.386-.834-.381-.898-.749-1.801-1.135-2.697-1.043-2.416-2.335-4.714-3.438-7.103-2.009-4.353-3.6-9.543-3.348-14.693.133-2.72-3.837-3.078-4.609-.624Z"/><path fill="#000" d="M316.467 159.713c-3.838-4.557-7.925-9.04-13.146-12.046-3.206-1.846-6.73-3.126-10.336-3.913-1.717-.375-3.447-.691-5.149-1.13-1.615-.416-3.161-1.068-4.79-1.427-5.024-1.108-10.136-.693-14.805 1.504l2.127-.897a47.223 47.223 0 0 0-7.945 3.955c-1.275.793-2.465 1.67-3.654 2.588-1.108.856-2.206 1.703-3.18 2.713-1.224 1.267-2.373 2.684-3.282 4.183-.959 1.582-1.631 3.312-2.34 5.015-.966 2.326-1.775 4.784-2.218 7.267a43.055 43.055 0 0 0-.687 6.898c-.027 1.635-.213 3.262-.427 4.882l.372-2.774c-.366 2.718-.819 5.431-1.035 8.167-.146 1.84-.113 3.692-.126 5.536-.027 3.877-.14 7.754-.138 11.631.004 7.711.948 15.337 1.764 22.994.315 2.961.618 5.94 1.202 8.861.414 2.066.935 4.109 1.235 6.196l-.379-2.82c.155 1.154.205 2.313.277 3.474.062.986.102 1.976-.024 2.959l.379-2.821a5.51 5.51 0 0 1-.277 1.104l1.069-2.534a3.184 3.184 0 0 1-.358.636l1.659-2.147c-.093.11-.185.205-.293.3l2.148-1.659c-.12.091-.237.17-.375.231l2.535-1.069a3.113 3.113 0 0 1-.595.145l2.821-.379c-2.252.295-4.563-.202-6.812-.321-1.767-.094-3.555-.016-5.324-.017l-6.311-.003c-1.529 0-3.036-.042-4.562-.156-1.568-.116-3.152-.245-4.724-.131-1.502.108-3.035.242-4.489.638-4.169 1.133-7.351 4.539-7.973 8.799-.387 2.65-.672 5.131-.438 7.789.433 4.926 1.639 9.69 2.316 14.572l-.38-2.826c.448 3.376.845 6.72 1.606 10.041.573 2.496 1.194 4.982 1.542 7.522l-.379-2.827c.318 2.466.352 5.003.031 7.473l.38-2.828c-.14 1.001-.363 1.982-.756 2.915l1.072-2.541a7.502 7.502 0 0 1-.908 1.54l1.664-2.154a7.161 7.161 0 0 1-1.209 1.183l2.154-1.664a8.958 8.958 0 0 1-1.807 1.02l2.542-1.073c-1.274.517-2.628.807-3.984 1.008l2.829-.38c-1.279.171-2.555.225-3.838.061l2.829.38a8.26 8.26 0 0 1-1.77-.497l2.543 1.073c-.909-.39-1.751-.897-2.604-1.393-1.632-.948-3.352-1.604-5.1-2.339l2.543 1.073c-2.559-1.095-4.944-2.512-7.46-3.691-1.17-.548-2.383-1.003-3.542-1.575-1.242-.612-2.349-1.406-3.443-2.248l2.142 1.655c-2.511-1.956-4.82-4.146-7.073-6.391-1.098-1.095-2.185-2.202-3.281-3.299-1.083-1.085-2.198-2.127-3.139-3.342l1.642 2.125c-1.025-1.358-1.84-2.838-2.511-4.399l1.056 2.502c-.572-1.363-1.018-2.762-1.455-4.172-.719-2.32-1.775-4.515-2.725-6.746l1.052 2.493c-.192-.52-.287-1.058-.36-1.605l.372 2.771c-.21-1.689-.294-3.415-.706-5.068-.572-2.29-1.875-4.647-3.597-6.276-1.973-1.867-4.614-3.048-7.359-3.048a7.827 7.827 0 0 0-4.01.896 7.805 7.805 0 0 0-3.349 2.152c-1.821 1.983-3.172 4.587-3.048 7.359.122 2.716 1.022 5.442 3.048 7.359.131.123.24.246.351.387l-1.628-2.106c.132.196.24.394.335.61l-1.049-2.487c.203.528.306 1.074.381 1.633l-.372-2.77c.195 1.597.33 3.206.618 4.79.294 1.615 1.151 3.072 1.792 4.572l-1.052-2.494c.639 1.519 1.1 3.074 1.596 4.642.691 2.185 1.571 4.333 2.562 6.395 1.642 3.418 4.235 6.204 6.862 8.886 2.346 2.396 4.656 4.834 7.139 7.091 1.815 1.65 3.743 3.153 5.698 4.635a20.691 20.691 0 0 0 4.158 2.434c1.746.775 3.418 1.632 5.104 2.531 2.455 1.309 4.969 2.405 7.544 3.467l-2.543-1.074c1.486.628 2.792 1.588 4.251 2.266 1.439.667 2.921 1.404 4.494 1.714 1.609.318 3.412.568 5.093.515 1.726-.055 3.451-.337 5.15-.621.859-.144 1.719-.33 2.55-.595 3.044-.971 5.198-2.21 7.611-4.242a13.746 13.746 0 0 0 3.466-4.456c.846-1.766 1.61-3.547 1.916-5.482.332-2.107.587-4.181.621-6.308.04-2.596-.324-5.149-.716-7.714-.612-4.003-1.861-7.878-2.423-11.891l.379 2.826c-.385-2.916-.72-5.83-1.272-8.721-.401-2.099-.828-4.194-1.12-6.312l.38 2.825c-.289-2.186-.427-4.39-.158-6.585l-.38 2.824c.065-.47.146-.936.246-1.4l-7.419 7.419a7.721 7.721 0 0 1 1.211-.276l-2.824.379c3.132-.416 6.345.2 9.491.199l6.597-.002c1.846-.001 3.711-.079 5.554.009 1.193.057 2.382.209 3.573.297 2.099.155 4.012.039 6.117-.357.205-.039.395-.085.594-.146.412-.127 2.257-.889 2.61-1.103.103-.062.199-.132.299-.198 2.775-1.822 4.562-4.284 5.58-7.423.659-2.029.764-4.34.64-6.476-.159-2.733-.431-5.448-.939-8.143-.432-2.29-1.038-4.544-1.363-6.854l.379 2.819c-.501-3.846-.827-7.712-1.241-11.567-.411-3.817-.833-7.601-.934-11.442-.1-3.83-.024-7.662.035-11.493.058-3.775-.159-7.587.172-11.35.181-2.066.463-4.124.576-6.196.111-2.038-.061-4.066.197-6.097l-.367 2.736c.386-2.775 1.177-5.573 2.249-8.161l-1.024 2.426c.773-1.818 1.776-3.602 2.978-5.171l-1.542 1.996c1.727-2.208 3.885-4.072 6.088-5.789l-1.857 1.435c1.515-1.166 3.124-2.23 4.889-2.976l-2.073.874a14.289 14.289 0 0 1 3.459-.932l-2.217.298c1.421-.174 2.84-.14 4.258.04l-2.108-.283c2.682.374 5.291.679 7.994.726 2.07.036 4.14.045 6.197.299l-1.802-.242c2.417.326 4.785.964 7.038 1.896l-1.453-.613a32.06 32.06 0 0 1 5.091 2.745l-1.12-.865c.964.766 1.98 1.458 2.958 2.208l-1.086-.839c1.759 1.359 3.437 2.817 5.104 4.287.975.86 2.114 1.427 3.445 1.427 1.195 0 2.623-.531 3.446-1.427.852-.929 1.485-2.148 1.427-3.446-.061-1.353-.555-2.41-1.427-3.445Z"/><path fill="#000" d="m155.765 201.525.438.563-.646-.836a60.164 60.164 0 0 1 3.435 4.997c1.181 1.908 2.407 3.808 3.896 5.496 1.364 1.548 3.116 2.791 4.83 3.92a62.034 62.034 0 0 0 4.432 2.657 57.422 57.422 0 0 0 11.519 4.759c4.113 1.192 8.357 1.717 12.617 2.058 2.269.181 4.544.297 6.819.347 1.079.024 2.181.088 3.257-.016 1.754-.17 3.439-.553 5.171-.804l-2.378.319c.278-.034.554-.058.834-.07l-2.397-.322.193.069-4.02-2.342.115.093-1.448-1.874c.513.666 1.026 1.33 1.541 1.994l1.911 1.477c1.462.942 3.28 1.268 4.98 1.29.392.005.78-.006 1.171-.039 2.284-.191 4.533-.513 6.467-1.862a7.175 7.175 0 0 0 2.667-2.448 7.157 7.157 0 0 0 1.701-3.232l.339-2.526a7.154 7.154 0 0 0-.818-3.662 4.747 4.747 0 0 0-1.222-2.096 7.175 7.175 0 0 0-2.667-2.448l-2.27-.958a9.564 9.564 0 0 0-5.053 0c-.96.2-1.848.56-2.829.695l2.514-.338c-1.755.195-3.427.312-4.98 1.313-1.423.918-2.553 2.033-3.452 3.492l1.448-1.874-.115.12 1.844-1.424-.17.101 2.153-.909c-1.504.319-2.862 1.124-4.393 1.334l2.297-.308c-3.214.384-6.444.635-9.679.751-2.926.106-5.817.081-8.723-.304l2.002.269c-3.145-.431-6.239-1.169-9.321-1.919-2.855-.694-5.705-1.554-8.421-2.684l1.401.591c-1.529-.65-2.994-1.456-4.322-2.458l1.064.822c-1.437-1.114-2.774-2.36-4.109-3.592-1.353-1.249-2.549-2.652-3.838-3.967-1.501-1.53-4.301-1.617-5.785 0-.716.78-1.247 1.803-1.198 2.893.051 1.155.49 1.99 1.198 2.892Zm164.762-4.271a35.337 35.337 0 0 1-2.917 4.482l.766-.992c-1.21 1.561-2.626 2.875-4.183 4.086l1.107-.855c-1.645 1.264-3.561 2.226-5.464 3.034l1.551-.655c-3.237 1.353-6.645 2.385-10.123 2.865l2.057-.277c-1.116.148-2.202.075-3.314-.073l2.144.288c-1.903-.266-3.826-.721-5.756-.591-1.89.127-3.735.536-5.604.803l2.273-.306c-1.456.189-2.877.071-4.325-.123l2.37.318c-2.217-.299-4.425-.58-6.652-.783-.732-.067-1.467-.161-2.201-.2-.571-.031-1.002.079-1.636.164-.682.092-1.131.125-1.719.306-1.048.324-2.109.68-3.003 1.324a9.02 9.02 0 0 0-3.215 3.215 8.926 8.926 0 0 0-1.224 4.525 8.92 8.92 0 0 0 1.224 4.524 9.013 9.013 0 0 0 3.215 3.215c1.667 1.203 4.59 1.94 6.602 1.79.856-.064 1.713-.126 2.569-.189 2.42-.177 4.818-.511 7.218-.863l-2.326.312c1.926-.253 3.882-.316 5.764-.843 1.097-.307 2.17-.678 3.3-.854l-2.214.298c2.859-.378 5.787-.099 8.568-1.055 2.329-.8 4.633-1.769 6.8-2.941 4.117-2.227 7.347-5.548 10.173-9.213l-.869 1.125c2.764-3.445 5.308-7.103 7.043-11.186.508-1.196.828-2.257.467-3.569-.296-1.074-1.127-2.239-2.129-2.768-2.17-1.147-5.092-.606-6.337 1.662Zm-159.402-23.959c.341-.266.75-.52 1.043-.839l-.383.333.382-.19c.158-.079.315-.16.472-.241a15.077 15.077 0 0 0 2.048-1.292c1.659-1.221 3.276-2.499 4.906-3.758l-1.229.949c.647-.499 1.341-.939 1.927-1.512.265-.259.524-.525.788-.787a83.73 83.73 0 0 1 1.605-1.548 45.41 45.41 0 0 1 3.236-2.771l-1.443 1.115c2.101-1.608 4.377-3.003 6.662-4.332 2.341-1.362 4.791-2.496 7.284-3.548l-1.994.841c3.707-1.551 7.535-2.702 11.431-3.663a302.73 302.73 0 0 1 13.803-3.085c2.226-.44 4.457-.872 6.706-1.18l-2.572.345c2.458-.328 4.969-.527 7.439-.199l-2.652-.357c.442.065.88.144 1.313.253 2.016.511 4.167.67 6.152-.069l-12.296-9.367.018.159.342-2.542c-.176 1.057-.351 2.109-.383 3.178a9.038 9.038 0 0 0 1.24 4.585 6.874 6.874 0 0 0 2.339 2.549 6.847 6.847 0 0 0 3.09 1.626 9.159 9.159 0 0 0 4.829 0c.221-.051.439-.093.651-.172l-2.543.341.131-.01a9.673 9.673 0 0 0 4.903-1.326 9.762 9.762 0 0 0 3.484-3.485 9.671 9.671 0 0 0 1.327-4.903 9.67 9.67 0 0 0-1.327-4.902c-.538-.762-1.126-1.672-1.785-2.323l-1.014-.784a7.546 7.546 0 0 0-3.408-1.794c-.116-.032-.209-.066-.331-.091-1.275-.26-2.597-.414-3.897-.507a18.721 18.721 0 0 0-2.967.048 57.723 57.723 0 0 0-8.525 1.387c-4.708 1.138-9.359 2.565-13.973 4.032-5.093 1.619-10.112 3.344-14.983 5.56-4.553 2.07-8.63 4.764-12.54 7.87-1.862 1.48-3.501 3.294-4.985 5.147-1.121 1.4-2.206 2.828-3.208 4.314-1.003 1.487-2.03 2.964-2.623 4.668l.623-1.477c-.622 1.392-1.231 2.79-1.87 4.175a112.456 112.456 0 0 0-2.079 4.847l.377-.894c-.053.118-.57.847-.204.358.379-.506-.202.248-.271.334-.601.745-1.022 1.473-1.022 2.467 0 .856.38 1.878 1.022 2.468.665.61 1.538 1.063 2.467 1.021.987-.044 1.696-.419 2.467-1.022Zm74.428-118.877.844-4.494c.387-2.06.506-4.143.668-6.23l.71-9.204c.48-6.211 1.115-12.434 1.406-18.657l.221-4.726c.217-4.646-2.63-9.656-7.293-10.853-3.858-.99-8.057.994-9.854 4.56-.995 1.973-1.676 4.044-1.571 6.293l.116 2.487c.29 6.227.856 12.442 1.337 18.657l.797 10.324c.173 2.245.242 4.541.643 6.758.306 1.697.636 3.39.955 5.085l.576 1.365c.359.666.85 1.2 1.472 1.604.964.744 2.211 1.283 3.462 1.227a6.78 6.78 0 0 0 2.885-.78c1.138-.602 2.385-2.131 2.626-3.416Zm-11.021 351.249-.844 4.494c-.387 2.061-.506 4.144-.667 6.23l-.711 9.204c-.48 6.212-1.115 12.434-1.406 18.658l-.221 4.726c-.216 4.645 2.63 9.655 7.293 10.852 3.858.991 8.057-.993 9.854-4.559.995-1.973 1.677-4.045 1.572-6.293l-.117-2.488c-.29-6.227-.856-12.441-1.337-18.657l-.797-10.324c-.173-2.244-.242-4.54-.643-6.757-.306-1.697-.636-3.391-.955-5.085l-.576-1.366a4.318 4.318 0 0 0-1.472-1.603c-.964-.745-2.211-1.283-3.462-1.227a6.779 6.779 0 0 0-2.885.78c-1.138.601-2.385 2.131-2.626 3.415ZM146.981 75.112l-1.519-4.326c-.687-1.955-1.637-3.803-2.53-5.67l-3.989-8.33c-2.691-5.621-5.254-11.33-8.115-16.867l-2.172-4.204c-2.145-4.15-7.193-7.033-11.827-5.68-3.804 1.112-6.371 4.94-6.144 8.895.127 2.207.597 4.344 1.808 6.232l1.344 2.096c3.364 5.245 6.961 10.342 10.483 15.483l5.851 8.538c1.256 1.833 2.447 3.764 3.884 5.462 1.115 1.319 2.25 2.621 3.374 3.932l1.157.893a4.253 4.253 0 0 0 2.125.678c1.218.164 2.58.008 3.644-.678a6.832 6.832 0 0 0 2.05-2.05c.732-1.135 1.028-3.118.576-4.404Zm166.123 309.861 1.519 4.326c.687 1.955 1.637 3.804 2.531 5.67l3.988 8.33c2.691 5.622 5.254 11.33 8.115 16.867l2.172 4.205c2.145 4.15 7.193 7.032 11.827 5.679 3.804-1.112 6.371-4.94 6.144-8.895-.126-2.206-.597-4.343-1.808-6.232l-1.344-2.095c-3.364-5.246-6.961-10.343-10.483-15.483l-5.851-8.538c-1.256-1.834-2.447-3.765-3.884-5.463-1.115-1.318-2.249-2.621-3.374-3.931l-1.157-.894a4.264 4.264 0 0 0-2.125-.678c-1.218-.164-2.579-.008-3.644.678a6.831 6.831 0 0 0-2.05 2.051c-.732 1.135-1.028 3.117-.576 4.403ZM80.673 137.43l-3.475-2.982c-1.57-1.347-3.29-2.476-4.993-3.642a34408.73 34408.73 0 0 0-7.612-5.216c-5.138-3.52-10.207-7.181-15.449-10.542l-3.982-2.554c-3.949-2.533-9.738-2.593-13.127.906-2.792 2.883-3.094 7.504-.892 10.856 1.169 1.78 2.654 3.409 4.572 4.4l2.213 1.144c5.54 2.863 11.207 5.481 16.832 8.174l9.343 4.473c2.01.962 4.018 2.06 6.114 2.816 1.627.586 3.264 1.146 4.896 1.719l1.519.204a4.3 4.3 0 0 0 2.202-.492c1.098-.463 2.16-1.255 2.733-2.338a6.78 6.78 0 0 0 .78-2.885c.059-1.317-.658-3.168-1.674-4.041Zm298.74 185.226 3.474 2.982c1.57 1.347 3.291 2.476 4.994 3.642l7.612 5.216c5.137 3.52 10.207 7.181 15.449 10.543l3.982 2.553c3.948 2.533 9.738 2.593 13.127-.906 2.792-2.883 3.094-7.504.892-10.856-1.169-1.78-2.654-3.409-4.572-4.4l-2.213-1.144c-5.541-2.863-11.208-5.481-16.833-8.174a82827.71 82827.71 0 0 0-9.343-4.473c-2.009-.962-4.017-2.06-6.114-2.816-1.626-.586-3.263-1.146-4.895-1.719l-1.519-.204a4.299 4.299 0 0 0-2.202.492c-1.098.463-2.16 1.255-2.733 2.338a6.779 6.779 0 0 0-.78 2.885c-.059 1.317.657 3.168 1.674 4.041ZM54.418 224.532l-4.494-.844c-2.06-.387-4.143-.506-6.23-.667l-9.204-.711c-6.211-.48-12.434-1.115-18.657-1.406l-4.726-.221c-4.646-.216-9.656 2.63-10.853 7.293-.99 3.858.994 8.057 4.56 9.854 1.973.995 4.044 1.677 6.293 1.572l2.487-.117c6.227-.29 12.442-.856 18.657-1.337l10.324-.797c2.245-.173 4.541-.242 6.758-.643 1.697-.306 3.39-.636 5.085-.955l1.365-.576a4.32 4.32 0 0 0 1.604-1.472c.744-.964 1.283-2.211 1.227-3.462a6.78 6.78 0 0 0-.78-2.885c-.602-1.138-2.131-2.385-3.416-2.626Zm351.249 11.022 4.494.844c2.061.387 4.144.506 6.23.667l9.204.711c6.212.48 12.434 1.115 18.658 1.406l4.726.221c4.645.216 9.655-2.63 10.852-7.293.991-3.858-.993-8.057-4.559-9.854-1.973-.995-4.045-1.677-6.293-1.572l-2.488.117c-6.227.29-12.441.856-18.657 1.337l-10.324.797c-2.244.173-4.54.242-6.757.643-1.697.306-3.391.636-5.085.955l-1.366.576c-.666.359-1.2.85-1.603 1.472-.745.964-1.283 2.211-1.227 3.462a6.779 6.779 0 0 0 .78 2.885c.601 1.138 2.131 2.385 3.415 2.626Zm-330.555 77.55-4.326 1.519c-1.955.687-3.803 1.637-5.67 2.53l-8.33 3.989c-5.621 2.691-11.33 5.254-16.867 8.115l-4.204 2.172c-4.15 2.145-7.033 7.193-5.68 11.827 1.112 3.804 4.94 6.371 8.895 6.144 2.207-.126 4.344-.597 6.232-1.808l2.096-1.344c5.245-3.364 10.342-6.961 15.483-10.483l8.538-5.851c1.833-1.256 3.764-2.447 5.462-3.884 1.319-1.115 2.621-2.25 3.932-3.374l.893-1.157a4.253 4.253 0 0 0 .678-2.125c.164-1.218.008-2.579-.678-3.644a6.832 6.832 0 0 0-2.05-2.05c-1.135-.732-3.118-1.028-4.404-.576Zm309.861-166.122 4.326-1.519c1.955-.687 3.804-1.637 5.67-2.53l8.33-3.989c5.622-2.691 11.33-5.254 16.867-8.115l4.205-2.172c4.15-2.145 7.032-7.193 5.679-11.827-1.112-3.804-4.94-6.371-8.895-6.144-2.207.127-4.343.597-6.232 1.808l-2.095 1.344c-5.246 3.364-10.343 6.961-15.483 10.483l-8.538 5.851c-1.834 1.256-3.765 2.447-5.463 3.884-1.318 1.115-2.621 2.25-3.931 3.374l-.894 1.157a4.264 4.264 0 0 0-.678 2.125c-.164 1.218-.008 2.58.678 3.644a6.84 6.84 0 0 0 2.05 2.05c1.136.732 3.118 1.028 4.404.576ZM137.43 379.413l-2.982 3.474c-1.347 1.57-2.476 3.291-3.642 4.994l-5.216 7.612c-3.52 5.137-7.181 10.207-10.542 15.449l-2.554 3.982c-2.533 3.948-2.593 9.738.906 13.127 2.883 2.792 7.504 3.094 10.856.892 1.78-1.169 3.409-2.654 4.4-4.572l1.144-2.213c2.863-5.541 5.481-11.208 8.174-16.833l4.473-9.343c.962-2.009 2.06-4.017 2.816-6.114.586-1.626 1.146-3.263 1.719-4.895l.204-1.519a4.299 4.299 0 0 0-.492-2.202c-.463-1.098-1.255-2.16-2.338-2.733a6.779 6.779 0 0 0-2.885-.78c-1.317-.059-3.168.657-4.041 1.674Zm185.226-298.74 2.982-3.475c1.347-1.57 2.476-3.29 3.642-4.993l5.216-7.612c3.52-5.138 7.181-10.207 10.543-15.449l2.553-3.982c2.533-3.949 2.593-9.738-.906-13.127-2.883-2.792-7.504-3.094-10.856-.892-1.78 1.169-3.409 2.654-4.4 4.572l-1.144 2.213c-2.863 5.54-5.481 11.207-8.174 16.832l-4.473 9.343c-.962 2.01-2.06 4.018-2.816 6.114-.586 1.627-1.146 3.264-1.719 4.896l-.204 1.519a4.3 4.3 0 0 0 .492 2.202c.463 1.098 1.255 2.16 2.338 2.733a6.78 6.78 0 0 0 2.885.78c1.317.059 3.168-.658 4.041-1.674Z"/></svg>